<svg width="12" height="16" viewBox="0 0 12 16" fill="none" xmlns="http://www.w3.org/2000/svg">
<path d="M5.80466 2.52858L3.4713 0.19525C3.21129 -0.0650833 2.78862 -0.0650833 2.52862 0.19525L0.195253 2.52858C-0.0650842 2.78892 -0.0650842 3.21092 0.195253 3.47125C0.455256 3.73158 0.877929 3.73158 1.13793 3.47125L2.33328 2.27592V15.3333C2.33328 15.7013 2.63195 15.9999 2.99996 15.9999C3.36796 15.9999 3.66663 15.7013 3.66663 15.3333V2.27592L4.86198 3.47125C4.99199 3.60158 5.16265 3.66658 5.33332 3.66658C5.50399 3.66658 5.67466 3.60158 5.80466 3.47125C6.065 3.21092 6.065 2.78892 5.80466 2.52858Z" fill="black"/>
<path d="M11.8048 12.5287C11.5444 12.2683 11.1224 12.2683 10.8621 12.5287L9.66676 13.724V0.666667C9.66676 0.298667 9.36809 0 9.00008 0C8.63208 0 8.3334 0.298667 8.3334 0.666667V13.724L7.13806 12.5287C6.87772 12.2683 6.45538 12.2683 6.19537 12.5287C5.93504 12.789 5.93504 13.211 6.19537 13.4713L8.52874 15.8047C8.65908 15.935 8.82941 16 9.00008 16C9.17075 16 9.34109 15.935 9.47142 15.8047L11.8048 13.4713C12.0651 13.211 12.0651 12.789 11.8048 12.5287Z" fill="black"/>
</svg>
