<svg xmlns="http://www.w3.org/2000/svg" width="48" height="64" viewBox="0 0 48 64"><defs><clipPath id="60r2a"><path d="M1 64a1 1 0 0 1-1-1V1a1 1 0 0 1 1-1h46a1 1 0 0 1 1 1v62a1 1 0 0 1-1 1z"/></clipPath></defs><g><g><g><g/><g clip-path="url(#60r2a)"><path fill="#ec8c40" d="M4.113 63.76C1.86 63.78.022 61.918.022 59.615V8.658c0-.219-.015-.438-.022-.657.008-.374.02-.747.022-1.12.02-3.053 2.09-5.163 5.09-5.19l2.904-.03 8.898.033.002 8.683-9.555.009c-.848 0-.849 0-.849.837 0 14.202.004 28.405-.014 42.607 0 .625.135.803.77.802 11.105-.021 22.21-.02 33.314-.003.57 0 .76-.124.76-.75-.02-14.246-.018-28.492-.003-42.738.001-.595-.138-.784-.745-.778-3.228.032-6.456.017-9.684.018.019-.768.047-1.536.054-2.304.02-2.13.031-4.262.045-6.393l8.795-.023c1.075.013 2.15.01 3.224.04 2.327.064 4.226 1.736 4.673 4.061.143.743.046 1.49.119 2.233-.008.22-.022.439-.022.658v50.658c0 2.264-1.789 4.102-4.005 4.119-26.178.19-35.658.295-39.68.33"/></g><g clip-path="url(#60r2a)"><path fill="#f0f0f5" d="M30.966 32.72c.787-.004 1.222-.378 1.225-1.027.003-.654-.425-1.046-1.215-1.05-2.684-.01-5.368-.01-8.052 0-.795.003-1.222.388-1.224 1.04-.001.657.426 1.032 1.214 1.037 1.331.007 2.662.002 3.994.002 1.352 0 2.705.005 4.058-.002zm-4.001-13.464c-1.331 0-2.663-.004-3.994.001-.841.003-1.277.368-1.27 1.045.006.649.435 1.03 1.23 1.033 2.684.01 5.368.01 8.052 0 .786-.004 1.214-.404 1.208-1.058-.007-.648-.44-1.015-1.232-1.02-1.331-.006-2.663 0-3.994-.001zm2.67 29.156c2.257 0 4.514.003 6.772-.001.78-.001 1.24-.377 1.256-1.008.018-.655-.457-1.07-1.268-1.071-4.472-.005-8.944-.005-13.416 0-.84 0-1.283.375-1.279 1.05.004.671.445 1.028 1.29 1.03 2.215.002 4.43 0 6.644 0zm.093-13.462h-3.805c-1.075 0-2.15-.014-3.224.009-.604.013-.982.416-1 .984-.016.571.336.978.932 1.054.191.025.386.017.58.017H36.43c.4 0 .777-.06 1.032-.42.235-.33.269-.699.1-1.06-.21-.445-.592-.59-1.064-.588-2.257.009-4.514.004-6.771.004zm-.06-9.346c2.235 0 4.47.001 6.706-.001.834-.001 1.294-.372 1.291-1.03-.002-.631-.452-1.028-1.238-1.03-4.493-.007-8.986-.007-13.478 0-.833.001-1.272.4-1.25 1.076.022.646.447.983 1.262.984 2.235.003 4.47 0 6.706 0zM14.49 50.057c1.161 0 2.323.009 3.484-.003.866-.009 1.213-.355 1.217-1.245.012-2.394.013-4.79 0-7.184-.005-.867-.38-1.233-1.24-1.237a919.684 919.684 0 0 0-6.968 0c-.885.003-1.255.387-1.258 1.293a1099.73 1099.73 0 0 0 0 7.119c.004.877.363 1.245 1.216 1.254 1.183.012 2.366.003 3.549.003zm-.073-11.398c1.183 0 2.366.004 3.55-.002.84-.004 1.216-.34 1.222-1.17.015-2.439.015-4.878 0-7.317-.005-.8-.379-1.157-1.166-1.16-2.366-.008-4.732-.008-7.098 0-.82.002-1.194.37-1.198 1.2a780.02 780.02 0 0 0 0 7.252c.004.82.39 1.19 1.205 1.195 1.162.007 2.323.002 3.485.002zm2.356-21.065c-1.913-.001-3.827-.01-5.74-.001-.944.005-1.306.372-1.308 1.31-.007 2.35-.006 4.7 0 7.05.002.949.364 1.318 1.292 1.32 2.28.006 4.559.005 6.838.001 1.01-.002 1.336-.342 1.34-1.4.005-2.064.004-4.13-.001-6.194-.002-.393.052-.791-.056-1.179.13-.25.251-.508.393-.752.699-1.205 1.419-2.398 2.101-3.613.494-.879.065-1.843-.847-1.944-.61-.068-.993.28-1.29.792-.9 1.542-1.813 3.074-2.722 4.61zm10.172 26.513c1.356 0 2.712-.007 4.067.004.495.004.899-.14 1.108-.624.312-.72-.207-1.42-1.076-1.423-2.69-.01-5.38-.007-8.07-.003-.843.001-1.284.37-1.275 1.04.01.668.439 1.003 1.308 1.005 1.313.005 2.625.002 3.938.001m3.965-33.726c3.228-.001 6.457.014 9.684-.018.607-.006.746.183.745.778-.015 14.246-.016 28.492.003 42.739 0 .625-.19.75-.76.749-11.104-.016-22.21-.018-33.314.003-.635.001-.77-.177-.77-.802.018-14.202.014-28.405.014-42.607 0-.836 0-.836.85-.837l9.554-.009c.293.633.71 1.106 1.454 1.106 1.459 0 2.917-.01 4.375-.016 2.16.01 4.32.008 6.478.04.836.013 1.383-.347 1.687-1.126"/></g><g clip-path="url(#60r2a)"><path fill="#394467" d="M22.745 11.467c-1.458.006-2.916.017-4.375.016-.745 0-1.16-.473-1.453-1.106l-.003-8.683C17.255.653 17.926.016 19.034.01c2.357-.013 4.714.004 7.072.009.018.339-.117.643-.211.956l-3.15 10.492"/></g><g clip-path="url(#60r2a)"><path fill="#4a5b93" d="M22.745 11.467L25.895.975c.094-.313.228-.617.21-.956C27.028.012 27.949.002 28.87 0c1.47-.003 1.788.25 2.14 1.685-.014 2.13-.025 4.261-.045 6.392-.007.768-.035 1.536-.054 2.304-.304.779-.85 1.139-1.687 1.126-2.159-.032-4.318-.03-6.478-.04"/></g><g clip-path="url(#60r2a)"><path fill="#394467" d="M14.487 31.06c-.772 0-1.545.01-2.318-.004-.301-.006-.413.094-.41.414.012 1.579.01 3.158 0 4.737 0 .281.09.385.37.383 1.545-.009 3.09-.013 4.636.002.36.004.422-.159.42-.477-.012-1.535-.014-3.07 0-4.606.004-.346-.113-.46-.443-.453-.752.016-1.503.005-2.255.005m-.07 7.598c-1.162 0-2.323.005-3.485-.002-.814-.005-1.201-.374-1.205-1.195a780.711 780.711 0 0 1 0-7.251c.004-.83.378-1.199 1.198-1.201 2.366-.008 4.732-.008 7.098 0 .787.003 1.16.36 1.166 1.16.015 2.439.015 4.878 0 7.317-.006.83-.383 1.166-1.223 1.17-1.183.006-2.366.002-3.549.002"/></g><g clip-path="url(#60r2a)"><path fill="#394467" d="M14.478 48.004c.753 0 1.506-.014 2.258.006.33.008.453-.094.45-.446-.016-1.56-.014-3.12-.001-4.68.002-.313-.094-.421-.404-.419-1.549.012-3.097.01-4.646.001-.272-.002-.378.077-.376.371.011 1.582.015 3.164-.002 4.746-.004.374.152.433.463.426.752-.016 1.505-.005 2.258-.005m.012 2.053c-1.183 0-2.366.009-3.549-.003-.853-.01-1.212-.377-1.216-1.254a1097.6 1097.6 0 0 1 0-7.119c.003-.906.373-1.29 1.258-1.293 2.323-.009 4.645-.008 6.968 0 .86.003 1.235.37 1.24 1.237.013 2.395.012 4.79 0 7.184-.004.89-.35 1.236-1.217 1.245-1.161.012-2.323.003-3.484.003"/></g><g clip-path="url(#60r2a)"><path fill="#394467" d="M19.138 18.5c.108.389.054.787.056 1.18.005 2.065.006 4.13 0 6.195-.003 1.057-.33 1.397-1.339 1.4-2.279.003-4.558.004-6.838-.002-.928-.002-1.29-.371-1.292-1.32-.006-2.35-.007-4.7 0-7.051.002-.937.364-1.305 1.307-1.31 1.914-.009 3.828 0 5.741.002-.383.715-.765 1.43-1.236 2.09l-2.453.001c-.28-.299-.559-.6-.842-.895-.574-.597-1.305-.67-1.819-.183-.51.483-.49 1.236.052 1.866.436.508.876 1.013 1.315 1.518-.009.941-.005 1.882-.032 2.822-.01.34.137.39.42.389 1.521-.01 3.043-.013 4.564.001.327.003.454-.085.444-.44-.026-.962-.018-1.925-.024-2.888a36.366 36.366 0 0 1 1.976-3.375"/></g><g clip-path="url(#60r2a)"><path fill="#ec8c40" d="M11.79 21.992c-.439-.506-.879-1.01-1.315-1.519-.542-.63-.561-1.383-.052-1.866.514-.486 1.245-.414 1.819.183.283.296.561.597.842.895.396.454.8.9 1.183 1.366.235.286.388.258.553-.063.227-.44.477-.87.717-1.303.471-.66.853-1.376 1.236-2.09.909-1.537 1.823-3.07 2.721-4.611.298-.511.68-.86 1.291-.792.912.101 1.341 1.065.847 1.944-.682 1.215-1.402 2.408-2.101 3.613-.142.244-.263.501-.393.752a36.301 36.301 0 0 0-1.976 3.374c-.351.576-.71 1.147-1.053 1.728-.807 1.371-1.517 1.44-2.597.25-.569-.626-1.148-1.241-1.722-1.861"/></g><g clip-path="url(#60r2a)"><path fill="#394467" d="M29.667 25.604c-2.235 0-4.47.001-6.706-.001-.816-.001-1.24-.338-1.262-.984-.022-.676.417-1.075 1.25-1.076 4.492-.007 8.985-.007 13.478 0 .786.002 1.235.399 1.238 1.03.003.658-.457 1.029-1.29 1.03-2.236.002-4.472 0-6.708 0"/></g><g clip-path="url(#60r2a)"><path fill="#394467" d="M29.728 34.95c2.257 0 4.514.005 6.77-.004.473-.002.854.143 1.064.588.17.361.136.73-.099 1.06-.255.36-.632.42-1.032.42H23.21c-.194 0-.389.008-.58-.016-.596-.077-.948-.484-.931-1.055.017-.568.395-.971.999-.984 1.074-.023 2.15-.009 3.224-.01h3.805"/></g><g clip-path="url(#60r2a)"><path fill="#394467" d="M29.634 48.412c-2.214 0-4.43.002-6.644 0-.845-.002-1.286-.359-1.29-1.03-.004-.675.438-1.05 1.279-1.05 4.472-.005 8.944-.005 13.416 0 .81 0 1.286.416 1.268 1.07-.017.632-.475 1.008-1.256 1.009-2.258.004-4.515.001-6.773.001"/></g><g clip-path="url(#60r2a)"><path fill="#394467" d="M26.965 19.256c1.331 0 2.662-.005 3.994.002.791.004 1.225.371 1.232 1.02.006.653-.422 1.053-1.208 1.056-2.684.011-5.368.01-8.052 0-.795-.002-1.225-.383-1.23-1.032-.007-.677.429-1.042 1.27-1.045 1.331-.005 2.663-.001 3.994-.001"/></g><g clip-path="url(#60r2a)"><path fill="#394467" d="M26.908 32.722c-1.332 0-2.663.005-3.994-.002-.788-.005-1.215-.38-1.214-1.038.002-.651.43-1.036 1.224-1.039 2.684-.01 5.368-.01 8.052 0 .79.003 1.218.396 1.215 1.05-.003.649-.438 1.023-1.225 1.027-1.353.007-2.706.002-4.058.002"/></g><g clip-path="url(#60r2a)"><path fill="#394467" d="M26.945 44.108c-1.313 0-2.625.003-3.938-.001-.87-.003-1.298-.338-1.308-1.006-.009-.67.432-1.039 1.275-1.04 2.69-.004 5.38-.008 8.07.003.869.004 1.388.703 1.076 1.423-.21.484-.613.628-1.108.624-1.355-.01-2.711-.004-4.067-.003"/></g><g clip-path="url(#60r2a)"><path fill="#f0f0f5" d="M14.487 31.06c.752 0 1.503.012 2.255-.004.33-.008.447.107.444.453-.015 1.535-.013 3.07-.002 4.606.003.318-.059.48-.419.477a301.536 301.536 0 0 0-4.637-.002c-.28.002-.37-.102-.368-.383.009-1.579.011-3.158-.002-4.737-.002-.32.11-.42.411-.414.773.014 1.546.005 2.318.005"/></g><g clip-path="url(#60r2a)"><path fill="#f0f0f5" d="M14.478 48.004c-.753 0-1.506-.011-2.258.005-.31.007-.467-.052-.463-.425.017-1.583.013-3.165.002-4.747-.002-.294.104-.373.376-.37 1.549.008 3.097.01 4.646-.002.31-.002.406.106.404.418-.012 1.56-.015 3.12 0 4.68.004.353-.118.455-.449.447-.752-.02-1.505-.006-2.258-.006"/></g><g clip-path="url(#60r2a)"><path fill="#f0f0f5" d="M11.79 21.992c.574.62 1.153 1.235 1.722 1.861 1.08 1.19 1.79 1.121 2.597-.25.343-.581.702-1.152 1.053-1.728.006.963-.002 1.926.024 2.889.01.354-.117.442-.444.44a287.383 287.383 0 0 0-4.564-.002c-.283.002-.43-.048-.42-.389.027-.94.023-1.88.032-2.821"/></g><g clip-path="url(#60r2a)"><path fill="#f0f0f5" d="M15.537 19.685c-.24.434-.49.863-.717 1.303-.165.32-.318.349-.553.063-.383-.466-.787-.912-1.183-1.366h2.453"/></g></g></g></g></svg>