<?xml version="1.0" encoding="utf-8"?>
<!-- Generator: Adobe Illustrator 26.2.1, SVG Export Plug-In . SVG Version: 6.00 Build 0)  -->
<svg version="1.1" id="Layer_1" xmlns="http://www.w3.org/2000/svg" xmlns:xlink="http://www.w3.org/1999/xlink" x="0px" y="0px"
	 viewBox="0 0 24 24" style="enable-background:new 0 0 24 24;" xml:space="preserve">
<style type="text/css">
	.st0{fill:none;}
	.st1{fill:#F15A22;}
</style>
<path class="st0" d="M0,0h24v24H0V0z"/>
<path class="st1" d="M6.62,10.79c1.44,2.83,3.76,5.14,6.59,6.59l2.2-2.2c0.27-0.27,0.67-0.36,1.02-0.24
	c1.12,0.37,2.33,0.57,3.57,0.57c0.55,0,1,0.45,1,1V20c0,0.55-0.45,1-1,1C10.61,21,3,13.39,3,4c0-0.55,0.45-1,1-1h3.5
	c0.55,0,1,0.45,1,1c0,1.25,0.2,2.45,0.57,3.57C9.18,7.92,9.1,8.31,8.82,8.59L6.62,10.79z"/>
</svg>
